<svg class="svgicon" xmlns="http://www.w3.org/2000/svg" viewBox="0 0 60 60"><path fill="none" stroke="#fff" stroke-width="1.5" stroke-linecap="round" stroke-linejoin="round" stroke-miterlimit="10" d="M17.511 56.687A2.313 2.313 0 0 1 15.196 59h-9.13a2.315 2.315 0 0 1-2.315-2.313V46.181a2.314 2.314 0 0 1 2.315-2.312h9.129a2.312 2.312 0 0 1 2.315 2.312v10.506zm19.124 0A2.314 2.314 0 0 1 34.321 59H25.19a2.314 2.314 0 0 1-2.314-2.313V34.781a2.313 2.313 0 0 1 2.314-2.314h9.131a2.313 2.313 0 0 1 2.314 2.314v21.906zm19.614 0A2.314 2.314 0 0 1 53.934 59h-9.131a2.315 2.315 0 0 1-2.314-2.313V20.571a2.314 2.314 0 0 1 2.314-2.313h9.131a2.313 2.313 0 0 1 2.315 2.313v36.116zM42.59 1.012L10.801 32.799M42.588 1H31.434m11.154.021v11.153"/></svg>