<svg class="svgicon" id="svg648" xmlns="http://www.w3.org/2000/svg" viewBox="0 0 60 60"><style>#svg648 path{fill:#fff}#svg648 path[fill=none],path{fill:none}</style><style>#svg648 .st0{fill:none;stroke:#fff;stroke-width:1.5;stroke-linecap:round;stroke-linejoin:round;stroke-miterlimit:10}</style><path class="st0" fill="#fff" d="M46.75 18.628L1 26.794v7.94l12.25 6.638L59 33.206v-7.941z"/><path class="st0" d="M34.376 32.225l-21.112 3.76L1 29.326m58-1.485l-18.799 3.347"/><path class="st0" d="M34.407 34.908l-21.143 3.765L1 32.014m58-1.486l-18.863 3.36"/><path class="st0" d="M1 26.794l12.25 6.637L59 25.265"/><path class="st0" d="M23.758 23.728c-3.163.876-3.916 2.423-1.565 3.696 2.335 1.265 6.956 1.843 10.963 1.453m5.033-1.335c1.399-.861 1.368-1.959-.381-2.907-1.768-.957-4.847-1.521-7.977-1.569"/><path class="st0" d="M34.545 37.57v-7.944l-12.25-6.637"/><path class="st0" d="M39.991 36.589v-7.943l-12.25-6.638"/></svg>