<svg class="svgicon" id="svg646" xmlns="http://www.w3.org/2000/svg" viewBox="0 0 60 60"><style>#svg646 path{fill:#fff}#svg646 path[fill=none],path{fill:none}</style><style>#svg646 .st0{fill:none;stroke:#fff;stroke-width:1.5;stroke-linecap:round;stroke-linejoin:round;stroke-miterlimit:10}</style><path class="st0" d="M37.878 43.281c-2.318-.611-1.351-3.735-1.699-6.144-.239-1.635-2.255-2.441-1.831-4.312m3.007 11.764c-3.042-1.107-3.246-4.652-4.575-7.321-.748-1.5-2.458-2.093-2.615-3.791-2.459.019-3.921-.958-4.314-3.006-.995-.748-2.445-1.039-2.222-3.006-1.098-.389-1.728-.365-2.483.262-2.611-.37-5.232.396-6.666-1.308-.203-.241-.203-.682-.392-1.047-.606-1.153-1.648-2.357-1.83-3.529-.281-1.781.278-3.682 1.176-5.228-.11-1.592.671-2.292 1.437-3.006.689-2.231 1.953-3.887 3.66-5.098.409.027.959-.088 1.177.13 1.069-1.11 2.102-2.255 4.315-2.222 1.702-1.608 4.287-1.44 6.665-1.438.641.001 1.207-.295 1.83-.262.336.019.695.363 1.047.393.534.045 1.164-.417 1.699-.393.305.015.93.31 1.307.393.633.139 1.147.143 1.566.261.389.109.666.521 1.048.654.159.055.524-.155.654-.131 1.203.226 2.57 1.31 3.397 1.961.36-.156.46-.37.915-.131 1.739.621 2.844 2.239 4.184 3.529 1.741 1.679 3.801 3.94 3.66 7.321 1.255.64 1.715 3.648.915 5.097.561 3.931-.908 6.926-3.007 8.628-.425.076-.606-.088-.914-.13-1.39 4.202-7.108 7.962-12.288 5.098" stroke="#fff" fill="none" stroke-width="1.5"/><path class="st0" d="M33.817 10.605c-2.716.069-4.777 4.992-.881 5.292.164.902 1.01 1.737 1.89 1.512m-2.52-6.552c-.161-1.639-3.107-1.996-5.165-1.764m-3.781 4.662c-.515-.326-1.251-.428-2.142-.378m7.183 5.165c-.186-1.467-1.523-3.499-3.781-2.897.052-.849-.529-1.065-.755-1.638m-2.268 4.535c2.048-.507 2.664 1.316 3.78 2.143 1.582-.153 2.179.677 3.024 1.26 1.358-1.706 5.445-.684 6.551-2.646.285.219.703.305 1.26.253.453-.135.779-.395 1.133-.631 1.254.646 2.667-.45 3.024-1.511 1.531.02 2.346-.678 2.142-2.395.655-.226 1.46-.304 1.513-1.133-1.412 1.24-3.767.667-4.284-1.008m8.612 6.578c-.374.928-1.064 1.54-2.395 1.513-1.049 1.974-2.803 3.242-5.166 3.905.975.706 1.794-.365 2.898 0 .428.497.29 1.557.63 2.142 1.256.101 3.468.656 3.402-.629m-22.723-2.55c-.27-.79-1.785-1.5-2.646-.882-.677-.668-1.244-.429-1.89-.881m15.624 5.922c-.295-1.122-2.515-1.063-3.401-.505-.654-.628-1.742-1.13-2.897-.88.09-1.993-2.935-3.336-4.032-1.513" stroke="#fff" fill="none" stroke-width="1.5"/><path class="st0" d="M25.721 59s-.667-2.648-.92-4.032c-.291-1.59-.548-3.024-1.399-3.92-5.536-.746-10.369 2.649-14.142.14-.65-.432-1.276-1.414-1.401-2.101-.298-1.635.887-3.046.559-4.901-.245-1.402-2.677-1.933-1.26-3.92-1.882-.396-1.216-2.985-.28-3.921-1.036-1.919-4.106-1.611-4.199-4.2-.07-1.95 1.988-2.778 2.939-3.782 1.057-1.112 2.8-3.508 3.081-5.04.293-1.602-.194-3.159-.14-4.341.316-6.958 4.688-11.74 9.8-14.421 2.888-1.512 6.602-2.635 9.803-3.22 7.923-1.447 16.232 1.941 21.423 5.881 4.976 3.776 8.128 9.24 7.701 16.942-.265 4.79-1.656 7.423-4.06 10.362-1.067 1.304-2.139 2.596-3.081 4.06-.938 1.459-2.44 3.811-2.24 6.02.187 2.063 1.268 4.337 1.96 6.302.693 1.972 1.9 3.78 1.961 6.021" stroke="#fff" fill="none" stroke-width="1.5"/></svg>