<svg xmlns="http://www.w3.org/2000/svg" xmlns:xlink="http://www.w3.org/1999/xlink"><defs><style>
    .sprite-symbol-usage {display: none;}
    .sprite-symbol-usage:target {display: inline;}
  </style><symbol class="svgicon" viewBox="0 0 60 60" id="stat"><path fill="none" stroke="#ffffff" stroke-width="1.5" stroke-linecap="round" stroke-linejoin="round" stroke-miterlimit="10" d="M17.511 56.687c0 1.277-1.035 2.313-2.315 2.313H6.066c-1.277 0-2.315-1.036-2.315-2.313V46.181c0-1.277 1.038-2.312 2.315-2.312h9.129c1.28 0 2.315 1.034 2.315 2.312V56.687zM36.635 56.687c0 1.277-1.036 2.313-2.314 2.313h-9.131c-1.277 0-2.314-1.036-2.314-2.313V34.781c0-1.28 1.037-2.314 2.314-2.314h9.131c1.278 0 2.314 1.034 2.314 2.314V56.687zM56.249 56.687c0 1.277-1.036 2.313-2.315 2.313h-9.131c-1.276 0-2.314-1.036-2.314-2.313V20.571c0-1.278 1.038-2.313 2.314-2.313h9.131c1.279 0 2.315 1.035 2.315 2.313V56.687zM42.59 1.012L10.801 32.799M42.588 1L31.434 1M42.588 1.021L42.588 12.174" /></symbol></defs><use id="stat-usage" xlink:href="#stat" class="sprite-symbol-usage" /></svg>