<svg class="svgicon" id="help" preserveAspectRatio="xMidYMid meet" xmlns="http://www.w3.org/2000/svg" viewBox="0 0 60 60">
    <path fill="none" stroke="rgb(0, 0, 0)" stroke-width="1.5" stroke-linecap="round" stroke-linejoin="round" stroke-miterlimit="10" d=" M49.295,32.953L26.358,10.019c-1.461-1.464-3.833-1.46-5.291,0.001c-1.188,1.185-1.393,2.963-0.655,4.374L7.583,39.786 c-0.032,0.031-0.057,0.065-0.081,0.1c-0.032,0.027-0.068,0.05-0.098,0.081l-5.753,5.75c-0.869,0.872-0.869,2.283,0,3.154 l9.2,9.199c0.87,0.871,2.283,0.871,3.154,0l5.75-5.752c0.03-0.029,0.05-0.064,0.079-0.096c0.034-0.025,0.068-0.05,0.1-0.082 l1.755-0.885c0.48,0.801,1.054,1.563,1.744,2.254c4.547,4.549,11.922,4.549,16.471,0c3.44-3.441,4.272-8.498,2.508-12.727 l3.183-1.607c1.271,0.373,2.697,0.076,3.7-0.926C50.758,36.789,50.758,34.416,49.295,32.953z M36.608,50.215 c-2.728,2.727-7.15,2.729-9.882,0c-0.331-0.332-0.621-0.689-0.871-1.064l12.377-6.255C39.126,45.365,38.589,48.235,36.608,50.215 z"></path>
    <line fill="none" stroke="rgb(0, 0, 0)" stroke-width="1.5" stroke-linecap="round" stroke-linejoin="round" stroke-miterlimit="10" x1="41.479" y1="18.436" x2="53.396" y2="6.52"></line>
    <line fill="none" stroke="rgb(0, 0, 0)" stroke-width="1.5" stroke-linecap="round" stroke-linejoin="round" stroke-miterlimit="10" x1="37.681" y1="15.013" x2="47.445" y2="1.276"></line>
    <line fill="none" stroke="rgb(0, 0, 0)" stroke-width="1.5" stroke-linecap="round" stroke-linejoin="round" stroke-miterlimit="10" x1="45.264" y1="22.235" x2="59" y2="12.47"></line>
</svg>
