<svg class="svgicon" id="money" preserveAspectRatio="xMidYMid meet" xmlns="http://www.w3.org/2000/svg" viewBox="0 0 60 60">
    <style> #money path, #money circle, #money polygon, #money rect {
        fill: rgb(255, 255, 255)
        }


        </style>
    <style type="text/css"> #money .st0 {
        fill: none;
        stroke: rgb(255, 255, 255);
        stroke-width: 1.5;
        stroke-linecap: round;
        stroke-linejoin: round;
        stroke-miterlimit: 10;
        } </style>
    <polygon class="st0" points="46.75,18.628 1,26.794 1,34.734 13.25,41.372 59,33.206 59,25.265 "></polygon>
    <polyline class="st0" points="34.376,32.225 13.264,35.985 1,29.326 "></polyline>
    <line class="st0" x1="59" y1="27.841" x2="40.201" y2="31.188"></line>
    <polyline class="st0" points="34.407,34.908 13.264,38.673 1,32.014 "></polyline>
    <line class="st0" x1="59" y1="30.528" x2="40.137" y2="33.888"></line>
    <polyline class="st0" points="1,26.794 13.25,33.431 59,25.265 "></polyline>
    <path class="st0" d="M23.758,23.728c-3.163,0.876-3.916,2.423-1.565,3.696c2.335,1.265,6.956,1.843,10.963,1.453"></path>
    <path class="st0" d="M38.189,27.542c1.399-0.861,1.368-1.959-0.381-2.907c-1.768-0.957-4.847-1.521-7.977-1.569"></path>
    <polyline class="st0" points="34.545,37.57 34.545,29.626 22.295,22.989 "></polyline>
    <polyline class="st0" points="39.991,36.589 39.991,28.646 27.741,22.008 "></polyline>
</svg>
