<svg class="svgicon" id="mustache-beard" preserveAspectRatio="xMidYMid meet" xmlns="http://www.w3.org/2000/svg" viewBox="0 0 60 60">
    <style> #mustache-beard path, #mustache-beard circle, #mustache-beard polygon, #mustache-beard rect {
        fill: rgb(0, 0, 0)
        }

        path {
        fill: none
        }

        #mustache-beard path[fill="none"], #mustache-beard circle[fill="none"], #mustache-beard polygon[fill="none"], #mustache-beard rect[fill="none"] {
        fill: none
        } </style>
    <style type="text/css"> #mustache-beard .st0 {
        fill: none;
        stroke: rgb(0, 0, 0);
        stroke-width: 1.5;
        stroke-linecap: round;
        stroke-linejoin: round;
        stroke-miterlimit: 10;
        } </style>
    <path class="st0" d="M51.059,23.188c-5.06-2.908-16.063-11.255-16.063-11.255s-0.884-0.254-1.519,0.632 C32.846,13.449,30,16.041,30,16.041s-2.847-2.592-3.479-3.477c-0.632-0.887-1.517-0.632-1.517-0.632S14.003,20.28,8.943,23.188 C3.884,26.096,1,21.038,1,21.038c1.871,9.359,11.103,6.83,11.103,6.83s7.843-3.667,11.512-5.565 C27.281,20.405,30,22.935,30,22.935s2.72-2.529,6.388-0.632c3.667,1.897,11.509,5.565,11.509,5.565s9.232,2.53,11.104-6.83 C59,21.038,56.116,26.096,51.059,23.188z"></path>
    <path class="st0" d="M22.474,32.42c0,0,8.35,3.162,15.811,0c0,0,0.759,8.348-7.905,15.682 C30.379,48.102,21.337,42.539,22.474,32.42z"></path>
</svg>
